# xmcd
#
# Track frame offsets: 
#        150
#        10343
#        24565
#        40197
#        53856
#        69441
#        87229
#        100504
#        108647
#        125247
#        150235
#        165048
#        178387
#
# Disc length: 2575 seconds
#
# Revision: 0
# Processed by: cddbd v1.5.2PL0 Copyright (c) Steve Scherf et al.
# Submitted via: ExactAudioCopyFreeDBPlugin 1.0
#
DISCID=9d0a0d0d
DTITLE=Galv of the 3 Moonz - Of the 3 Moonz
DYEAR=2016
DGENRE=Rap
TTITLE0=Sunblokka
TTITLE1=Halt den Moment fest
TTITLE2=Sag wieso
TTITLE3=GalvOfThe3Moonz
TTITLE4=Spieltheorie
TTITLE5=Die Summe
TTITLE6=Trelune
TTITLE7=Stargate
TTITLE8=Phonkphazer feat. Toni-L
TTITLE9=Funky Spaceparty
TTITLE10=Love Amp
TTITLE11=Autokino feat. Pierre Sonality
TTITLE12=Falschgeld feat. Pierre Sonality
EXTD=
EXTT0=
EXTT1=
EXTT2=
EXTT3=
EXTT4=
EXTT5=
EXTT6=
EXTT7=
EXTT8=
EXTT9=
EXTT10=
EXTT11=
EXTT12=
PLAYORDER=
